<?xml version="1.0" encoding="utf-8"?>
<!-- Generator: Adobe Illustrator 24.1.1, SVG Export Plug-In . SVG Version: 6.00 Build 0)  -->
<svg version="1.1" id="Слой_1" xmlns="http://www.w3.org/2000/svg" xmlns:xlink="http://www.w3.org/1999/xlink" x="0px" y="0px"
	 viewBox="0 0 95.6 95.6" style="enable-background:new 0 0 95.6 95.6;" xml:space="preserve">
<style type="text/css">
	.st0{fill:#FFFFFF;}
	.st1{fill:#00AEEF;}
</style>
<path class="st0" d="M26.5,19.9c0.6-1,18.7-19,19.7-19.6c1-0.5,2.2-0.5,3.1,0c0.4,0.2,5.1,4.7,10.4,10c8.4,8.4,9.6,9.8,9.8,10.7
	c0.1,0.6,0.1,1.4-0.1,1.8c-0.2,0.4-4.7,5.2-10.1,10.5c-10.5,10.4-10.4,10.4-12.6,9.9c-0.9-0.2-19.5-18.6-20.2-19.9
	C26,22.4,26,20.9,26.5,19.9z"/>
<path class="st1" d="M0.4,46.1C1,45,19.1,27,20.2,26.5c1-0.5,2.2-0.5,3.1,0c0.9,0.5,19.6,19.1,20,20c0.4,0.8,0.4,1.9-0.1,2.8
	c-0.2,0.4-4.8,5.1-10.1,10.4C22.8,70,22.8,70,20.7,69.4C19.8,69.2,1.1,50.9,0.4,49.6C-0.1,48.6-0.1,47,0.4,46.1z"/>
<path class="st1" d="M62.1,36.2c5.3-5.3,9.9-9.8,10.2-9.9c0.3-0.1,1.2-0.2,1.9-0.2l1.3,0.1l9.8,9.8C95.7,46.3,96,46.7,95.6,48.6
	c-0.2,1.3-19.2,20.3-20.7,20.7C72.8,70,72.6,69.8,62,59.2c-10.4-10.4-10.4-10.4-9.8-12.4C52.4,46.1,55,43.3,62.1,36.2z"/>
<path class="st1" d="M36.1,62.3c5.3-5.3,9.9-9.8,10.2-9.9c0.3-0.1,1.2-0.2,1.9-0.2l1.3,0.1l9.7,9.7c5.6,5.5,9.9,10.1,10.1,10.6
	c0.9,2.1,0.9,2.1-9.7,12.7C49.1,95.9,48.9,96,46.7,95.4C45.2,94.9,26.3,75.9,26,74.6C25.7,72.7,26,72.3,36.1,62.3z"/>
</svg>
